<svg width="134" height="15" viewBox="0 0 134 15" fill="none" xmlns="http://www.w3.org/2000/svg">
<path opacity="0.64" d="M133.241 2.56152C133.483 2.69448 133.571 2.99846 133.438 3.24049L131.272 7.18459C131.139 7.42662 130.835 7.51504 130.593 7.38209C130.351 7.24914 130.262 6.94515 130.395 6.70313L132.321 3.19726L128.815 1.27141C128.573 1.13846 128.485 0.834474 128.618 0.592443C128.751 0.350414 129.055 0.26199 129.297 0.394941L133.241 2.56152ZM1 2.99976L1.1309 2.5172C1.77483 2.69187 2.4152 2.86449 3.05209 3.03504L2.92276 3.51802L2.79342 4.001C2.15546 3.83017 1.51404 3.65727 0.869097 3.48232L1 2.99976ZM6.73265 4.52421L6.85859 4.04033C8.14233 4.37446 9.41205 4.69979 10.6685 5.0163L10.5464 5.50115L10.4242 5.98601C9.16513 5.66883 7.89286 5.34284 6.60671 5.00809L6.73265 4.52421ZM14.3862 6.45077L14.5041 5.96485C15.7976 6.27859 17.0772 6.58253 18.3439 6.87664L18.2309 7.36368L18.1178 7.85073C16.8477 7.55585 15.5649 7.25115 14.2683 6.93668L14.3862 6.45077ZM22.0817 8.23609L22.1895 7.74785C23.4866 8.03418 24.7706 8.30973 26.0424 8.57446L25.9405 9.06397L25.8386 9.55348C24.5627 9.2879 23.2748 9.0115 21.9739 8.72434L22.0817 8.23609ZM29.8085 9.84289L29.9039 9.35207C31.2061 9.6052 32.4961 9.8465 33.775 10.0759L33.6867 10.5681L33.5984 11.0602C32.3146 10.8299 31.0198 10.5877 29.7131 10.3337L29.8085 9.84289ZM37.5756 11.2345L37.6561 10.741C38.9635 10.9543 40.2602 11.1547 41.5474 11.3421L41.4753 11.8369L41.4033 12.3317C40.1102 12.1434 38.808 11.9421 37.4951 11.728L37.5756 11.2345ZM45.3854 12.3701L45.4484 11.8741C46.7599 12.0405 48.0628 12.1931 49.3584 12.3317L49.3052 12.8289L49.252 13.3261C47.9497 13.1867 46.6404 13.0334 45.3225 12.8661L45.3854 12.3701ZM53.2335 13.2085L53.2764 12.7103C54.5902 12.8234 55.8979 12.9219 57.201 13.0055L57.1689 13.5045L57.1369 14.0035C55.8265 13.9193 54.5116 13.8204 53.1906 13.7067L53.2335 13.2085ZM61.1099 13.7133L61.1307 13.2137C62.4443 13.2684 63.7548 13.3078 65.0636 13.3319L65.0544 13.8318L65.0452 14.3318C63.7286 14.3075 62.4104 14.2678 61.0891 14.2128L61.1099 13.7133ZM69.0004 13.8583L68.9979 13.3583C70.3086 13.3517 71.6193 13.3296 72.9316 13.292L72.9459 13.7918L72.9602 14.2916C71.6401 14.3294 70.3215 14.3517 69.0029 14.3583L69.0004 13.8583ZM76.8887 13.6326L76.8627 13.1333C78.168 13.0653 79.4763 12.982 80.7893 12.8833L80.8268 13.3819L80.8643 13.8805C79.5437 13.9797 78.2277 14.0635 76.9147 14.1319L76.8887 13.6326ZM84.7582 13.0419L84.7096 12.5443C86.0074 12.4176 87.311 12.276 88.6221 12.1195L88.6813 12.6159L88.7406 13.1124C87.4226 13.2698 86.1118 13.4121 84.8068 13.5396L84.7582 13.0419ZM92.5946 12.1078L92.5252 11.6126C93.814 11.4319 95.1112 11.2371 96.418 11.0281L96.4969 11.5218L96.5759 12.0155C95.2629 12.2256 93.9594 12.4213 92.664 12.6029L92.5946 12.1078ZM100.388 10.8629L100.3 10.3707C101.579 10.1422 102.869 9.90043 104.17 9.64534L104.266 10.136L104.362 10.6267C103.056 10.8828 101.761 11.1256 100.475 11.3551L100.388 10.8629ZM108.133 9.34608L108.029 8.85699C109.3 8.58715 110.582 8.305 111.877 8.01048L111.988 8.49803L112.099 8.98558C110.799 9.28113 109.512 9.56431 108.237 9.83518L108.133 9.34608ZM115.833 7.59648L115.716 7.11044C116.979 6.80539 118.256 6.48898 119.546 6.16116L119.669 6.64575L119.792 7.13034C118.498 7.45912 117.218 7.7765 115.95 8.08253L115.833 7.59648ZM123.492 5.65131L123.363 5.1681C124.616 4.83512 125.881 4.49179 127.16 4.13807L127.293 4.61998L127.426 5.10188C126.144 5.45646 124.876 5.80066 123.62 6.13452L123.492 5.65131ZM131.087 3.5519L130.949 3.07121C131.583 2.88981 132.22 2.70596 132.86 2.51966L133 2.99976L133.14 3.47986C132.498 3.66655 131.86 3.85079 131.225 4.03258L131.087 3.5519Z" fill="black"/>
</svg>
