<svg width="67" height="56" viewBox="0 0 67 56" fill="none" xmlns="http://www.w3.org/2000/svg">
<g clip-path="url(#clip0_84_3)">
<path fill-rule="evenodd" clip-rule="evenodd" d="M20.9251 24.6465C18.184 25.7148 15.3169 26.5085 12.6998 27.8552C11.7429 28.348 10.925 29.1642 10.361 30.0821C9.62214 31.2821 9.15964 32.6626 8.88891 34.045C8.64826 35.2807 8.5599 36.5954 8.85131 37.8198C9.13144 38.9972 9.66726 40.1991 10.549 41.0285C11.6507 42.0649 13.0815 42.8059 14.5479 43.1802C16.0839 43.5714 17.7459 43.5564 19.3007 43.2555C20.6205 43.0015 21.9478 42.4429 22.9593 41.5571C23.9294 40.7088 24.5799 39.4919 24.9973 38.2731C25.3808 37.1503 25.4748 35.8995 25.3 34.7259C25.1383 33.6444 24.7021 32.5591 24.0178 31.7071C23.403 30.9435 22.51 30.3492 21.5662 30.084C20.5002 29.7849 19.2988 29.7435 18.246 30.084C17.1744 30.43 16.1554 31.1354 15.4917 32.0457C14.8055 32.988 14.4727 34.203 14.3975 35.3672C14.3167 36.6293 14.7397 37.8763 15.0386 39.1045C15.2078 39.7966 15.5425 40.438 15.7925 41.1057C14.9634 40.5527 13.9632 40.1935 13.3033 39.4449C12.5137 38.5496 11.8068 37.4813 11.568 36.3114C11.3668 35.324 11.6244 34.2387 12.0587 33.3303C12.5738 32.2488 13.3785 31.2745 14.3223 30.5372C15.2003 29.8507 16.2983 29.4539 17.3774 29.1793C18.5036 28.8934 19.6993 28.7053 20.848 28.8765C22.1847 29.0777 23.5346 29.5216 24.6589 30.2721C25.6892 30.9604 26.5465 31.9629 27.1105 33.0651C27.6256 34.0713 27.8926 35.2619 27.7892 36.3866C27.6708 37.6788 27.2045 38.9803 26.4694 40.0468C25.676 41.1978 24.5329 42.1138 23.3372 42.8398C22.2148 43.5225 20.9326 43.9721 19.6391 44.1978C18.1031 44.4686 16.4881 44.6303 14.9615 44.3106C13.1078 43.9232 11.3048 43.1558 9.71802 42.1213C8.53922 41.3539 7.57662 40.2311 6.85092 39.0273C6.22486 37.9891 5.82628 36.7666 5.75672 35.5553C5.68528 34.3046 5.85448 32.9673 6.43542 31.8557C7.12165 30.5467 8.20081 29.4125 9.41533 28.5718C11.0717 27.4245 12.9799 26.6552 14.8863 26.0044C16.8416 25.3386 18.9134 25.0979 20.9251 24.6465ZM43.234 24.0521L37.5712 22.3142C37.4716 25.4364 36.8963 28.5793 37.2685 31.6789C37.7084 35.3409 37.8739 39.1308 39.9871 42.4034C36.9433 41.2448 36.2232 39.253 35.1553 37.1164C34.1025 35.0099 33.8186 32.5234 33.8712 30.1686L34.0968 20.1231C34.1401 18.1689 35.1102 14.962 36.2871 13.401C37.5787 11.6875 39.361 10.3032 41.2693 9.3233C43.0234 8.42238 45.0388 7.99919 47.0072 7.88822C49.1336 7.76785 51.3276 7.97474 53.3487 8.64432C55.0652 9.21233 56.6821 10.228 57.9549 11.5145C59.0246 12.596 59.8575 14.0235 60.1451 15.5169C60.414 16.9144 60.1602 18.4642 59.5416 19.7469C58.9908 20.8848 57.9342 21.7876 56.8231 22.3895C55.5409 23.0873 54.0349 23.4597 52.576 23.4465C51.0381 23.4333 49.4889 23.0553 48.1409 22.3124C46.8926 21.6258 45.5333 20.7042 45.0463 19.367C44.5519 18.0109 44.9411 16.3934 45.4994 15.0617C45.9751 13.9276 47.1595 13.2486 47.9905 12.342C47.7649 14.0292 47.0561 15.72 47.3118 17.4015C47.5318 18.8591 48.2725 20.3224 49.3498 21.3287C50.2692 22.1863 51.5852 22.6641 52.8411 22.6133C54.4279 22.5493 55.8624 21.2516 56.7479 19.9707C57.6165 18.7143 58.1015 17.0122 57.8045 15.515C57.4717 13.8373 56.2985 12.3364 55.0107 11.2098C53.8056 10.1565 52.2056 9.53019 50.632 9.24619C48.7745 8.9114 46.8155 8.99604 44.9693 9.39666C43.1512 9.79163 41.2862 10.4217 39.8348 11.5878C38.5996 12.5809 37.5167 14.0254 37.2685 15.5902C37.0448 16.9971 37.731 18.5037 38.5526 19.6679C39.784 21.4171 41.6735 22.5926 43.234 24.0521Z" fill="black"/>
<path fill-rule="evenodd" clip-rule="evenodd" d="M45.8718 24.6465C48.6129 25.7148 51.48 26.5085 54.0971 27.8552C55.054 28.348 55.8718 29.1642 56.4359 30.0821C57.1747 31.2821 57.6372 32.6626 57.908 34.045C58.1486 35.2807 58.237 36.5954 57.9456 37.8198C57.6654 38.9972 57.1296 40.1991 56.2479 41.0285C55.1461 42.0649 53.7154 42.8059 52.249 43.1802C50.7129 43.5714 49.051 43.5564 47.4962 43.2555C46.1763 43.0015 44.849 42.4429 43.8357 41.5571C42.8656 40.7088 42.215 39.4919 41.7977 38.2731C41.4141 37.1503 41.3201 35.8995 41.495 34.7259C41.6567 33.6444 42.0928 32.5591 42.7772 31.7071C43.392 30.9435 44.2869 30.3492 45.2288 30.084C46.2948 29.7849 47.4962 29.7435 48.549 30.084C49.6206 30.43 50.6396 31.1354 51.3033 32.0457C51.9895 32.988 52.3223 34.203 52.3975 35.3672C52.4783 36.6293 52.0553 37.8763 51.7564 39.1045C51.5872 39.7966 51.2525 40.438 51.0025 41.1057C51.8316 40.5527 52.8318 40.1935 53.4917 39.4449C54.2813 38.5496 54.9882 37.4813 55.227 36.3114C55.4282 35.324 55.1706 34.2387 54.7363 33.3303C54.2211 32.2488 53.4165 31.2745 52.4727 30.5372C51.5947 29.8507 50.4967 29.4539 49.4176 29.1793C48.2914 28.8934 47.0957 28.7053 45.947 28.8765C44.6103 29.0777 43.2604 29.5216 42.1361 30.2721C41.1058 30.9604 40.2485 31.9629 39.6845 33.0651C39.1693 34.0713 38.9024 35.2619 39.0058 36.3866C39.1242 37.6788 39.5905 38.9803 40.3256 40.0468C41.119 41.1978 42.262 42.1138 43.4559 42.8398C44.5783 43.5225 45.8605 43.9721 47.154 44.1978C48.69 44.4686 50.305 44.6303 51.8316 44.3106C53.6853 43.9232 55.4883 43.1558 57.0751 42.1213C58.2539 41.3539 59.2165 40.2311 59.9422 39.0273C60.5683 37.9891 60.9668 36.7666 61.0364 35.5553C61.1097 34.3046 60.9386 32.9673 60.3577 31.8557C59.6715 30.5467 58.5923 29.4125 57.3778 28.5718C55.7214 27.4245 53.8132 26.6552 51.9068 26.0044C49.9553 25.3386 47.8834 25.0979 45.8718 24.6465ZM38.0996 0C37.9492 0.603748 37.6766 1.19057 37.6465 1.81124C37.6126 2.4827 37.9473 3.13911 37.9097 3.81245C37.8702 4.5347 37.7743 5.29455 37.419 5.92651C36.7046 7.19796 34.7925 7.80171 33.3975 7.74716C32.0025 7.79983 30.0905 7.19796 29.3761 5.92651C29.0226 5.29643 28.9249 4.5347 28.8854 3.81245C28.8478 3.141 29.1824 2.48458 29.1486 1.81124C29.1185 1.18869 28.8459 0.603748 28.6955 0C28.3552 0.302815 27.966 0.556727 27.6765 0.906563C27.293 1.36925 26.8812 1.8451 26.6951 2.41687C26.4921 3.04131 26.3323 3.75791 26.5447 4.37859C26.8399 5.24001 27.4603 5.9867 28.1296 6.6055C29.44 7.82052 31.572 8.85686 33.3957 8.85686C35.2193 8.85686 37.3513 7.82052 38.6617 6.6055C39.3291 5.9867 39.9514 5.24001 40.2466 4.37859C40.4591 3.75791 40.2993 3.03943 40.0962 2.41687C39.9101 1.84698 39.4984 1.36925 39.1148 0.906563C38.8272 0.556727 38.438 0.302815 38.0996 0ZM23.5629 24.0521L29.2257 22.3142C29.3272 25.4364 29.9006 28.5793 29.5284 31.6789C29.0884 35.3409 28.923 39.1308 26.8098 42.4034C29.8536 41.2448 30.5737 39.253 31.6416 37.1164C32.6944 35.0099 32.9783 32.5234 32.9256 30.1686L32.7 20.1231C32.6568 18.1689 31.6867 14.962 30.5098 13.401C29.2182 11.6875 27.4359 10.3032 25.5276 9.3233C23.7735 8.42238 21.7581 7.99919 19.7896 7.88823C17.6633 7.76785 15.4692 7.97474 13.4482 8.64432C11.7317 9.21233 10.1148 10.228 8.842 11.5145C7.77224 12.596 6.93937 14.0235 6.65172 15.5169C6.38287 16.9144 6.63668 18.4642 7.25522 19.7469C7.8042 20.8848 8.86268 21.7876 9.9738 22.3895C11.256 23.0873 12.7619 23.4597 14.2209 23.4465C15.7588 23.4333 17.3079 23.0553 18.6559 22.3124C19.9043 21.6259 21.2636 20.7042 21.7505 19.367C22.245 18.0109 21.8558 16.3934 21.2974 15.0617C20.8218 13.9276 19.6373 13.2486 18.8063 12.342C19.032 14.0292 19.7407 15.72 19.4851 17.4015C19.2651 18.8591 18.5243 20.3224 17.4471 21.3287C16.5277 22.1863 15.2117 22.6641 13.9558 22.6133C12.369 22.5493 10.9345 21.2516 10.049 19.9707C9.18041 18.7143 8.69535 17.0122 8.9924 15.515C9.32518 13.8373 10.4983 12.3364 11.7862 11.2098C12.9913 10.1565 14.5912 9.5302 16.1649 9.24619C18.0224 8.9114 19.9814 8.99604 21.8276 9.39666C23.6456 9.79163 25.5107 10.4217 26.9621 11.5878C28.1973 12.5809 29.2802 14.0254 29.5284 15.5902C29.7521 16.9971 29.0659 18.5037 28.2443 19.6679C27.011 21.4171 25.1234 22.5926 23.5629 24.0521ZM7.00706 51.2114C7.00706 50.0867 6.64044 49.2271 5.90534 48.6328C5.17211 48.0384 4.10611 47.7431 2.70734 47.7431H1.79551V54.6834H2.61334C4.10611 54.6834 5.21347 54.3975 5.93166 53.8258C6.64796 53.2521 7.00706 52.3813 7.00706 51.2114ZM8.30618 51.2227C8.30618 52.7048 7.81548 53.8276 6.83409 54.5894C5.85269 55.353 4.41632 55.7348 2.52498 55.7348H0.494507V46.6861H2.55882C4.4088 46.6861 5.82825 47.0773 6.81905 47.8654C7.80984 48.6497 8.30618 49.7707 8.30618 51.2227ZM12.1772 46.6861H13.3072V55.7348H12.1772V46.6861ZM21.9649 52.1612L20.5116 48.8735L19.0602 52.1612H21.9649ZM24.7812 55.7367H23.5328L22.3785 53.1223H18.624L17.4753 55.7367H16.2269L20.5097 46.4228L24.7812 55.7367ZM37.1389 55.7367H36.009L35.146 49.8704L32.2657 56L29.4118 49.8704L28.5488 55.7367H27.4076L28.9305 46.4228L32.2864 53.6151L35.6499 46.4228L37.1389 55.7367ZM45.8962 52.1612L44.4429 48.8735L42.9915 52.1612H45.8962ZM48.7126 55.7367H47.4642L46.3098 53.1223H42.5535L41.4047 55.7367H40.1564L44.4392 46.4228L48.7126 55.7367ZM57.8177 55.7367H56.6916V51.4409H52.5253V55.7367H51.3954V46.6861H52.5253V50.3857H56.6916V46.6861H57.8177V55.7367ZM66.3025 47.6961H64.2532V55.7367H63.127V47.6961H61.0721V46.6861H66.3025V47.6961Z" fill="black"/>
</g>
<defs>
<clipPath id="clip0_84_3">
<rect width="66.6483" height="56" fill="white"/>
</clipPath>
</defs>
</svg>
