<svg width="153" height="128" viewBox="0 0 153 128" fill="none" xmlns="http://www.w3.org/2000/svg">
<path fill-rule="evenodd" clip-rule="evenodd" d="M47.8288 56.3348C41.5633 58.7767 35.01 60.5909 29.0281 63.669C26.8408 64.7953 24.9715 66.6611 23.6823 68.7591C21.9935 71.5019 20.9363 74.6574 20.3175 77.8172C19.7675 80.6416 19.5655 83.6467 20.2316 86.4454C20.8719 89.1366 22.0966 91.8837 24.112 93.7795C26.6302 96.1483 29.9005 97.8422 33.2524 98.6977C36.7633 99.5919 40.5621 99.5575 44.1159 98.8696C47.1326 98.2893 50.1665 97.0124 52.4785 94.9876C54.6959 93.0487 56.1827 90.2672 57.1367 87.4814C58.0134 84.9149 58.2282 82.056 57.8286 79.3734C57.459 76.9015 56.462 74.4209 54.8978 72.4734C53.4926 70.728 51.4514 69.3695 49.2942 68.7634C46.8576 68.0798 44.1116 67.9852 41.7051 68.7634C39.2557 69.5544 36.9265 71.1665 35.4096 73.2473C33.8411 75.4011 33.0805 78.1783 32.9086 80.8394C32.7238 83.7241 33.6907 86.5743 34.374 89.3816C34.7607 90.9637 35.5256 92.4296 36.0972 93.9558C34.2021 92.6919 31.9159 91.8708 30.4076 90.1597C28.6027 88.1134 26.9869 85.6715 26.4412 82.9975C25.9813 80.7405 26.5701 78.26 27.5627 76.1835C28.7402 73.7116 30.5794 71.4847 32.7367 69.7994C34.7435 68.2303 37.2531 67.3232 39.7198 66.6955C42.2939 66.0421 45.0269 65.6122 47.6526 66.0034C50.708 66.4634 53.7934 67.4779 56.3632 69.1933C58.7181 70.7667 60.6777 73.0581 61.9669 75.5774C63.1443 77.8773 63.7545 80.5986 63.5182 83.1695C63.2475 86.1229 62.1817 89.0979 60.5015 91.5354C58.688 94.1665 56.0753 96.2601 53.3422 97.9195C50.7767 99.4801 47.846 100.508 44.8894 101.023C41.3785 101.643 37.6872 102.012 34.1978 101.281C29.9606 100.396 25.8395 98.6418 22.2126 96.2773C19.5182 94.5233 17.318 91.9567 15.6592 89.2053C14.2282 86.8323 13.3172 84.0379 13.1582 81.2693C12.9949 78.4104 13.3817 75.3538 14.7095 72.8131C16.2781 69.8209 18.7447 67.2286 21.5208 65.3069C25.3067 62.6845 29.6684 60.9262 34.0259 59.4387C38.4951 57.9168 43.2307 57.3666 47.8288 56.3348ZM98.8205 54.9763L85.877 51.004C85.6493 58.1404 84.3343 65.3241 85.1852 72.409C86.1907 80.7792 86.5689 89.4418 91.399 96.9222C84.4417 94.2739 82.7959 89.7212 80.355 84.8375C77.9485 80.0226 77.2996 74.3392 77.4199 68.9568L77.9356 45.9956C78.0345 41.5289 80.2519 34.199 82.942 30.6308C85.8942 26.7143 89.968 23.5502 94.3298 21.3104C98.3392 19.2512 102.946 18.2839 107.445 18.0302C112.305 17.7551 117.32 18.228 121.94 19.7584C125.863 21.0568 129.559 23.3783 132.468 26.3188C134.913 28.7908 136.817 32.0537 137.475 35.4672C138.089 38.6614 137.509 42.2038 136.095 45.1358C134.836 47.7367 132.421 49.8002 129.881 51.1759C126.951 52.7709 123.508 53.6221 120.174 53.592C116.659 53.5619 113.118 52.6978 110.036 50.9997C107.183 49.4305 104.076 47.324 102.963 44.2673C101.833 41.1677 102.722 37.4705 103.999 34.4268C105.086 31.8345 107.793 30.2825 109.693 28.2104C109.177 32.0666 107.557 35.9315 108.141 39.7748C108.644 43.1066 110.337 46.4513 112.8 48.7513C114.901 50.7116 117.909 51.8036 120.78 51.6875C124.407 51.5414 127.685 48.575 129.709 45.6473C131.695 42.7756 132.803 38.8849 132.124 35.4629C131.364 31.6281 128.682 28.1975 125.739 25.6224C122.984 23.2149 119.327 21.7833 115.73 21.1341C111.485 20.3689 107.007 20.5624 102.787 21.4781C98.6314 22.3809 94.3685 23.8211 91.051 26.4865C88.2276 28.7564 85.7524 32.058 85.1852 35.6349C84.6738 38.8505 86.2423 42.2941 88.1202 44.9552C90.9349 48.9533 95.2537 51.6402 98.8205 54.9763Z" fill="white"/>
<path fill-rule="evenodd" clip-rule="evenodd" d="M104.85 56.3348C111.115 58.7767 117.669 60.5909 123.65 63.669C125.838 64.7953 127.707 66.6611 128.996 68.7591C130.685 71.5019 131.742 74.6574 132.361 77.8172C132.911 80.6416 133.113 83.6467 132.447 86.4454C131.807 89.1366 130.582 91.8837 128.566 93.7795C126.048 96.1483 122.778 97.8422 119.426 98.6977C115.915 99.5919 112.116 99.5575 108.563 98.8696C105.546 98.2893 102.512 97.0124 100.196 94.9876C97.9783 93.0487 96.4915 90.2672 95.5375 87.4814C94.6608 84.9149 94.446 82.056 94.8456 79.3734C95.2152 76.9015 96.2122 74.4209 97.7764 72.4734C99.1816 70.728 101.227 69.3695 103.38 68.7634C105.817 68.0798 108.563 67.9852 110.969 68.7634C113.419 69.5544 115.748 71.1665 117.265 73.2473C118.833 75.4011 119.594 78.1783 119.766 80.8394C119.95 83.7241 118.984 86.5743 118.3 89.3816C117.913 90.9637 117.149 92.4296 116.577 93.9558C118.472 92.6919 120.758 91.8708 122.267 90.1597C124.072 88.1134 125.687 85.6715 126.233 82.9975C126.693 80.7405 126.104 78.26 125.111 76.1835C123.934 73.7116 122.095 71.4847 119.938 69.7994C117.931 68.2303 115.421 67.3232 112.954 66.6955C110.38 66.0421 107.647 65.6122 105.022 66.0034C101.966 66.4634 98.8808 67.4779 96.311 69.1933C93.9561 70.7667 91.9965 73.0581 90.7073 75.5774C89.5299 77.8773 88.9196 80.5986 89.156 83.1695C89.4267 86.1229 90.4925 89.0979 92.1727 91.5354C93.9862 94.1665 96.5989 96.2601 99.3277 97.9195C101.893 99.4801 104.824 100.508 107.78 101.023C111.291 101.643 114.983 102.012 118.472 101.281C122.709 100.396 126.83 98.6418 130.457 96.2773C133.152 94.5233 135.352 91.9567 137.011 89.2054C138.442 86.8323 139.353 84.0379 139.512 81.2693C139.679 78.4104 139.288 75.3538 137.96 72.8131C136.392 69.8209 133.925 67.2286 131.149 65.3069C127.363 62.6845 123.001 60.9262 118.644 59.4387C114.183 57.9168 109.448 57.3666 104.85 56.3348ZM87.0847 0C86.7409 1.38 86.1178 2.7213 86.0491 4.13999C85.9717 5.67475 86.7366 7.17512 86.6507 8.71418C86.5604 10.365 86.3413 12.1018 85.5291 13.5463C83.8961 16.4525 79.5258 17.8325 76.3372 17.7078C73.1486 17.8282 68.7782 16.4525 67.1453 13.5463C66.3374 12.1061 66.1139 10.365 66.0237 8.71418C65.9377 7.17942 66.7026 5.67905 66.6253 4.13999C66.5565 2.717 65.9334 1.38 65.5897 0C64.8118 0.692148 63.9223 1.27252 63.2605 2.07214C62.3839 3.12971 61.4428 4.21737 61.0173 5.52428C60.5532 6.95157 60.188 8.58951 60.6735 10.0082C61.3482 11.9772 62.7663 13.6839 64.2962 15.0983C67.2914 17.8755 72.1645 20.2442 76.3329 20.2442C80.5013 20.2442 85.3744 17.8755 88.3696 15.0983C89.8951 13.6839 91.3175 11.9772 91.9922 10.0082C92.4778 8.58951 92.1125 6.94727 91.6484 5.52428C91.223 4.22167 90.2819 3.12971 89.4053 2.07214C88.7478 1.27252 87.8582 0.692148 87.0847 0ZM53.858 54.9763L66.8015 51.004C67.0335 58.1404 68.3442 65.3241 67.4933 72.409C66.4878 80.7792 66.1096 89.4418 61.2795 96.9222C68.2368 94.2739 69.8826 89.7212 72.3235 84.8375C74.73 80.0226 75.3789 74.3392 75.2586 68.9568L74.7429 45.9956C74.644 41.5289 72.4266 34.199 69.7365 30.6308C66.7843 26.7143 62.7105 23.5502 58.3487 21.3104C54.3393 19.2512 49.7326 18.2839 45.2334 18.0302C40.3731 17.7551 35.3582 18.228 30.7386 19.7584C26.8152 21.0568 23.1195 23.3783 20.2102 26.3188C17.7651 28.7908 15.8614 32.0537 15.2039 35.4672C14.5894 38.6614 15.1695 42.2038 16.5833 45.1358C17.8381 47.7367 20.2575 49.8002 22.7972 51.1759C25.728 52.7709 29.1701 53.6221 32.5048 53.592C36.02 53.5619 39.5609 52.6978 42.6421 50.9997C45.4955 49.4305 48.6024 47.324 49.7154 44.2673C50.8456 41.1677 49.9561 37.4705 48.6798 34.4268C47.5926 31.8345 44.8853 30.2825 42.9859 28.2104C43.5016 32.0666 45.1216 35.9315 44.5372 39.7748C44.0344 43.1066 42.3413 46.4513 39.8789 48.7513C37.7776 50.7116 34.7695 51.8036 31.8989 51.6875C28.272 51.5414 24.9931 48.575 22.9691 45.6474C20.9837 42.7756 19.875 38.8849 20.554 35.4629C21.3146 31.6281 23.9961 28.1975 26.9398 25.6224C29.6944 23.2149 33.3514 21.7833 36.9482 21.1341C41.1939 20.3689 45.6717 20.5624 49.8916 21.4781C54.0471 22.3809 58.31 23.8211 61.6275 26.4865C64.4509 28.7564 66.9261 32.058 67.4933 35.6349C68.0047 38.8505 66.4362 42.2941 64.5583 44.9552C61.7393 48.9533 57.4248 51.6402 53.858 54.9763ZM16.0161 117.055C16.0161 114.484 15.1781 112.519 13.4979 111.161C11.8219 109.802 9.38535 109.127 6.18816 109.127H4.10398V124.991H5.9733C9.38535 124.991 11.9165 124.337 13.558 123.03C15.1953 121.719 16.0161 119.729 16.0161 117.055ZM18.9855 117.08C18.9855 120.468 17.8639 123.035 15.6207 124.776C13.3775 126.521 10.0944 127.394 5.77133 127.394H1.13025V106.711H5.84868C10.0772 106.711 13.3217 107.605 15.5863 109.407C17.851 111.199 18.9855 113.762 18.9855 117.08ZM27.8336 106.711H30.4163V127.394H27.8336V106.711ZM50.2053 119.226L46.8835 111.711L43.566 119.226H50.2053ZM56.6427 127.398H53.7893L51.1507 121.422H42.569L39.9434 127.398H37.09L46.8792 106.109L56.6427 127.398ZM84.8888 127.398H82.3061L80.3337 113.989L73.7502 128L67.2269 113.989L65.2545 127.398H62.646L66.1268 106.109L73.7975 122.549L81.4853 106.109L84.8888 127.398ZM104.906 119.226L101.584 111.711L98.2663 119.226H104.906ZM111.343 127.398H108.49L105.851 121.422H97.265L94.6394 127.398H91.7859L101.575 106.109L111.343 127.398ZM132.155 127.398H129.581V117.579H120.058V127.398H117.475V106.711H120.058V115.167H129.581V106.711H132.155V127.398ZM151.548 109.02H146.864V127.398H144.29V109.02H139.593V106.711H151.548V109.02Z" fill="white"/>
</svg>
