<svg width="24" height="24" viewBox="0 0 24 24" fill="none" xmlns="http://www.w3.org/2000/svg">
<g clip-path="url(#clip0_40_551)">
<path d="M20.9455 0H3.05455C2.24443 0 1.46749 0.321817 0.894656 0.894656C0.321817 1.46749 0 2.24443 0 3.05455V20.9455C0 21.7556 0.321817 22.5325 0.894656 23.1053C1.46749 23.6782 2.24443 24 3.05455 24H11.8184V14.014H9.82118V10.0197H11.8018V8.21455C11.8018 6.5808 12.5801 4.0284 16.0051 4.0284L19.0904 4.04078V7.46302H16.8498C16.4855 7.46302 15.9671 7.64444 15.9671 8.42258V10.0199H19.1414L18.777 14.0143H15.8127V24H20.9455C21.3466 24 21.7438 23.921 22.1144 23.7675C22.485 23.614 22.8217 23.389 23.1053 23.1053C23.389 22.8217 23.614 22.485 23.7675 22.1144C23.921 21.7438 24 21.3466 24 20.9455V3.05455C24 2.65342 23.921 2.25622 23.7675 1.88562C23.614 1.51503 23.389 1.1783 23.1053 0.894656C22.8217 0.611015 22.485 0.386019 22.1144 0.232513C21.7438 0.0790081 21.3466 0 20.9455 0Z" fill="white"/>
</g>
<defs>
<clipPath id="clip0_40_551">
<rect width="24" height="24" fill="white"/>
</clipPath>
</defs>
</svg>
