<svg width="24" height="24" viewBox="0 0 24 24" fill="none" xmlns="http://www.w3.org/2000/svg">
<g clip-path="url(#clip0_40_548)">
<path d="M21.4066 0H2.59337C1.16114 0 0 1.16114 0 2.59337V21.4066C0 22.8389 1.16114 24 2.59337 24H21.4066C22.8389 24 24 22.8389 24 21.4066V2.59337C24 1.16114 22.8389 0 21.4066 0ZM19.4032 10.4549C17.8839 10.4549 16.476 9.96894 15.3266 9.14397V15.0981C15.3266 18.0721 12.9074 20.4913 9.93383 20.4913C8.78486 20.4913 7.71923 20.1289 6.84323 19.5137C5.45267 18.5375 4.54108 16.9227 4.54108 15.0981C4.54108 12.1245 6.96028 9.70534 9.93383 9.70534C10.1806 9.70534 10.4226 9.72548 10.6605 9.75778V12.7491C10.4306 12.677 10.1871 12.6353 9.93383 12.6353C8.57557 12.6353 7.47109 13.7403 7.47109 15.0981C7.47109 16.0439 8.00718 16.8655 8.79142 17.278C9.1332 17.4583 9.52134 17.5613 9.93383 17.5613C11.2607 17.5613 12.3427 16.506 12.3919 15.1908L12.3966 3.44877H15.3266C15.3266 3.70254 15.3514 3.95068 15.3959 4.19181C15.6028 5.30847 16.2653 6.26594 17.183 6.86477C17.8225 7.28147 18.5848 7.52493 19.4032 7.52493V10.4549Z" fill="white"/>
</g>
<defs>
<clipPath id="clip0_40_548">
<rect width="24" height="24" fill="white"/>
</clipPath>
</defs>
</svg>
